<?xml version="1.0" encoding="UTF-8" standalone="no"?>
<!DOCTYPE svg PUBLIC "-//W3C//DTD SVG 1.1//EN"
 "http://www.w3.org/Graphics/SVG/1.1/DTD/svg11.dtd">
<!-- Generated by graphviz version 2.40.1 (20161225.0304)
 -->
<!-- Title: dependencies Pages: 1 -->
<svg width="586pt" height="211pt"
 viewBox="0.00 0.00 586.00 211.00" xmlns="http://www.w3.org/2000/svg" xmlns:xlink="http://www.w3.org/1999/xlink">
<g id="graph0" class="graph" transform="scale(1 1) rotate(0) translate(4 207)">
<title>dependencies</title>
<polygon fill="#ffffff" stroke="transparent" points="-4,4 -4,-207 582,-207 582,4 -4,4"/>
<text text-anchor="start" x="268.0091" y="-42.4" font-family="sans-serif" font-weight="bold" font-size="14.00" fill="#000000">Legend</text>
<polygon fill="#ffffb3" stroke="transparent" points="55,-10 55,-30 75,-30 75,-10 55,-10"/>
<text text-anchor="start" x="78.629" y="-15.4" font-family="sans-serif" font-size="14.00" fill="#000000"> &#160;Declarations</text>
<polygon fill="#8dd3c7" stroke="transparent" points="168,-10 168,-30 188,-30 188,-10 168,-10"/>
<text text-anchor="start" x="191.7251" y="-15.4" font-family="sans-serif" font-size="14.00" fill="#000000"> &#160;Module</text>
<polygon fill="#80b1d3" stroke="transparent" points="254,-10 254,-30 274,-30 274,-10 254,-10"/>
<text text-anchor="start" x="277.7812" y="-15.4" font-family="sans-serif" font-size="14.00" fill="#000000"> &#160;Bootstrap</text>
<polygon fill="#fdb462" stroke="transparent" points="351,-10 351,-30 371,-30 371,-10 351,-10"/>
<text text-anchor="start" x="374.6732" y="-15.4" font-family="sans-serif" font-size="14.00" fill="#000000"> &#160;Providers</text>
<polygon fill="#fb8072" stroke="transparent" points="447,-10 447,-30 467,-30 467,-10 447,-10"/>
<text text-anchor="start" x="470.7258" y="-15.4" font-family="sans-serif" font-size="14.00" fill="#000000"> &#160;Exports</text>
<g id="clust1" class="cluster">
<title>cluster_UserModule</title>
<polygon fill="none" stroke="#000000" stroke-dasharray="1,5" points="8,-70 8,-195 570,-195 570,-70 8,-70"/>
</g>
<g id="clust2" class="cluster">
<title>cluster_UserModule_declarations</title>
<polygon fill="none" stroke="#000000" points="156,-78 156,-130 562,-130 562,-78 156,-78"/>
</g>
<g id="clust9" class="cluster">
<title>cluster_UserModule_providers</title>
<polygon fill="none" stroke="#000000" points="16,-78 16,-130 148,-130 148,-78 16,-78"/>
</g>
<!-- DialogComponent -->
<g id="node1" class="node">
<title>DialogComponent</title>
<polygon fill="#ffffb3" stroke="#000000" points="553.9356,-122 434.0644,-122 434.0644,-86 553.9356,-86 553.9356,-122"/>
<text text-anchor="middle" x="494" y="-99.8" font-family="Times,serif" font-size="14.00" fill="#000000">DialogComponent</text>
</g>
<!-- UserModule -->
<g id="node4" class="node">
<title>UserModule</title>
<polygon fill="#8dd3c7" stroke="#000000" points="339.9762,-187 336.9762,-191 315.9762,-191 312.9762,-187 254.0238,-187 254.0238,-151 339.9762,-151 339.9762,-187"/>
<text text-anchor="middle" x="297" y="-164.8" font-family="Times,serif" font-size="14.00" fill="#000000">UserModule</text>
</g>
<!-- DialogComponent&#45;&gt;UserModule -->
<g id="edge1" class="edge">
<title>DialogComponent&#45;&gt;UserModule</title>
<path fill="none" stroke="#000000" d="M494,-122.1061C494,-141.3391 494,-169 494,-169 494,-169 350.2325,-169 350.2325,-169"/>
<polygon fill="#000000" stroke="#000000" points="350.2325,-165.5001 340.2325,-169 350.2325,-172.5001 350.2325,-165.5001"/>
</g>
<!-- ListComponent -->
<g id="node2" class="node">
<title>ListComponent</title>
<polygon fill="#ffffb3" stroke="#000000" points="416.6109,-122 313.3891,-122 313.3891,-86 416.6109,-86 416.6109,-122"/>
<text text-anchor="middle" x="365" y="-99.8" font-family="Times,serif" font-size="14.00" fill="#000000">ListComponent</text>
</g>
<!-- ListComponent&#45;&gt;UserModule -->
<g id="edge2" class="edge">
<title>ListComponent&#45;&gt;UserModule</title>
<path fill="none" stroke="#000000" d="M326.7164,-122.1061C326.7164,-122.1061 326.7164,-140.991 326.7164,-140.991"/>
<polygon fill="#000000" stroke="#000000" points="323.2164,-140.9909 326.7164,-150.991 330.2164,-140.991 323.2164,-140.9909"/>
</g>
<!-- ManagerComponent -->
<g id="node3" class="node">
<title>ManagerComponent</title>
<polygon fill="#ffffb3" stroke="#000000" points="295.5814,-122 164.4186,-122 164.4186,-86 295.5814,-86 295.5814,-122"/>
<text text-anchor="middle" x="230" y="-99.8" font-family="Times,serif" font-size="14.00" fill="#000000">ManagerComponent</text>
</g>
<!-- ManagerComponent&#45;&gt;UserModule -->
<g id="edge3" class="edge">
<title>ManagerComponent&#45;&gt;UserModule</title>
<path fill="none" stroke="#000000" d="M274.7763,-122.1061C274.7763,-122.1061 274.7763,-140.991 274.7763,-140.991"/>
<polygon fill="#000000" stroke="#000000" points="271.2764,-140.9909 274.7763,-150.991 278.2764,-140.991 271.2764,-140.9909"/>
</g>
<!-- UserService -->
<g id="node5" class="node">
<title>UserService</title>
<ellipse fill="#fdb462" stroke="#000000" cx="82" cy="-104" rx="58.4415" ry="18"/>
<text text-anchor="middle" x="82" y="-99.8" font-family="Times,serif" font-size="14.00" fill="#000000">UserService</text>
</g>
<!-- UserService&#45;&gt;UserModule -->
<g id="edge4" class="edge">
<title>UserService&#45;&gt;UserModule</title>
<path fill="none" stroke="#000000" d="M82,-122.1061C82,-141.3391 82,-169 82,-169 82,-169 244.0083,-169 244.0083,-169"/>
<polygon fill="#000000" stroke="#000000" points="244.0083,-172.5001 254.0083,-169 244.0082,-165.5001 244.0083,-172.5001"/>
</g>
</g>
</svg>
