<?xml version="1.0" encoding="UTF-8" standalone="no"?>
<!DOCTYPE svg PUBLIC "-//W3C//DTD SVG 1.1//EN"
 "http://www.w3.org/Graphics/SVG/1.1/DTD/svg11.dtd">
<!-- Generated by graphviz version 2.40.1 (20161225.0304)
 -->
<!-- Title: dependencies Pages: 1 -->
<svg width="586pt" height="360pt"
 viewBox="0.00 0.00 586.00 360.00" xmlns="http://www.w3.org/2000/svg" xmlns:xlink="http://www.w3.org/1999/xlink">
<g id="graph0" class="graph" transform="scale(1 1) rotate(0) translate(4 356)">
<title>dependencies</title>
<polygon fill="#ffffff" stroke="transparent" points="-4,4 -4,-356 582,-356 582,4 -4,4"/>
<text text-anchor="start" x="268.0091" y="-42.4" font-family="sans-serif" font-weight="bold" font-size="14.00" fill="#000000">Legend</text>
<polygon fill="#ffffb3" stroke="transparent" points="55,-10 55,-30 75,-30 75,-10 55,-10"/>
<text text-anchor="start" x="78.629" y="-15.4" font-family="sans-serif" font-size="14.00" fill="#000000"> &#160;Declarations</text>
<polygon fill="#8dd3c7" stroke="transparent" points="168,-10 168,-30 188,-30 188,-10 168,-10"/>
<text text-anchor="start" x="191.7251" y="-15.4" font-family="sans-serif" font-size="14.00" fill="#000000"> &#160;Module</text>
<polygon fill="#80b1d3" stroke="transparent" points="254,-10 254,-30 274,-30 274,-10 254,-10"/>
<text text-anchor="start" x="277.7812" y="-15.4" font-family="sans-serif" font-size="14.00" fill="#000000"> &#160;Bootstrap</text>
<polygon fill="#fdb462" stroke="transparent" points="351,-10 351,-30 371,-30 371,-10 351,-10"/>
<text text-anchor="start" x="374.6732" y="-15.4" font-family="sans-serif" font-size="14.00" fill="#000000"> &#160;Providers</text>
<polygon fill="#fb8072" stroke="transparent" points="447,-10 447,-30 467,-30 467,-10 447,-10"/>
<text text-anchor="start" x="470.7258" y="-15.4" font-family="sans-serif" font-size="14.00" fill="#000000"> &#160;Exports</text>
<g id="clust1" class="cluster">
<title>cluster_AppModule</title>
<polygon fill="none" stroke="#000000" stroke-dasharray="1,5" points="173,-146 173,-344 567,-344 567,-146 173,-146"/>
</g>
<g id="clust2" class="cluster">
<title>cluster_AppModule_declarations</title>
<polygon fill="none" stroke="#000000" points="437,-154 437,-206 559,-206 559,-154 437,-154"/>
</g>
<g id="clust4" class="cluster">
<title>cluster_AppModule_imports</title>
<polygon fill="none" stroke="#000000" points="181,-154 181,-206 429,-206 429,-154 181,-154"/>
</g>
<g id="clust6" class="cluster">
<title>cluster_AppModule_bootstrap</title>
<polygon fill="none" stroke="#000000" points="295,-284 295,-336 419,-336 419,-284 295,-284"/>
</g>
<g id="clust14" class="cluster">
<title>cluster_UserModule</title>
<polygon fill="none" stroke="#000000" stroke-dasharray="1,5" points="8,-70 8,-138 570,-138 570,-70 8,-70"/>
</g>
<g id="clust15" class="cluster">
<title>cluster_UserModule_declarations</title>
<polygon fill="none" stroke="#000000" points="156,-78 156,-130 562,-130 562,-78 156,-78"/>
</g>
<g id="clust22" class="cluster">
<title>cluster_UserModule_providers</title>
<polygon fill="none" stroke="#000000" points="16,-78 16,-130 148,-130 148,-78 16,-78"/>
</g>
<!-- AppComponent -->
<g id="node1" class="node">
<title>AppComponent</title>
<polygon fill="#ffffb3" stroke="#000000" points="550.9399,-198 445.0601,-198 445.0601,-162 550.9399,-162 550.9399,-198"/>
<text text-anchor="middle" x="498" y="-175.8" font-family="Times,serif" font-size="14.00" fill="#000000">AppComponent</text>
</g>
<!-- AppModule -->
<g id="node2" class="node">
<title>AppModule</title>
<polygon fill="#8dd3c7" stroke="#000000" points="398.6571,-263 395.6571,-267 374.6571,-267 371.6571,-263 315.3429,-263 315.3429,-227 398.6571,-227 398.6571,-263"/>
<text text-anchor="middle" x="357" y="-240.8" font-family="Times,serif" font-size="14.00" fill="#000000">AppModule</text>
</g>
<!-- AppComponent&#45;&gt;AppModule -->
<g id="edge1" class="edge">
<title>AppComponent&#45;&gt;AppModule</title>
<path fill="none" stroke="#000000" d="M498,-198.1061C498,-217.3391 498,-245 498,-245 498,-245 408.9229,-245 408.9229,-245"/>
<polygon fill="#000000" stroke="#000000" points="408.9229,-241.5001 398.9229,-245 408.9229,-248.5001 408.9229,-241.5001"/>
</g>
<!-- AppComponent  -->
<g id="node5" class="node">
<title>AppComponent </title>
<polygon fill="#80b1d3" stroke="#000000" points="411.439,-328 302.561,-328 302.561,-292 411.439,-292 411.439,-328"/>
<text text-anchor="middle" x="357" y="-305.8" font-family="Times,serif" font-size="14.00" fill="#000000">AppComponent </text>
</g>
<!-- AppModule&#45;&gt;AppComponent  -->
<g id="edge4" class="edge">
<title>AppModule&#45;&gt;AppComponent </title>
<path fill="none" stroke="#000000" stroke-dasharray="1,5" d="M357,-263.1061C357,-263.1061 357,-281.991 357,-281.991"/>
<polygon fill="#000000" stroke="#000000" points="353.5001,-281.9909 357,-291.991 360.5001,-281.991 353.5001,-281.9909"/>
</g>
<!-- AppRoutingModule -->
<g id="node3" class="node">
<title>AppRoutingModule</title>
<polygon fill="#8dd3c7" stroke="#000000" points="421.2744,-198 418.2744,-202 397.2744,-202 394.2744,-198 292.7256,-198 292.7256,-162 421.2744,-162 421.2744,-198"/>
<text text-anchor="middle" x="357" y="-175.8" font-family="Times,serif" font-size="14.00" fill="#000000">AppRoutingModule</text>
</g>
<!-- AppRoutingModule&#45;&gt;AppModule -->
<g id="edge2" class="edge">
<title>AppRoutingModule&#45;&gt;AppModule</title>
<path fill="none" stroke="#000000" d="M357,-198.1061C357,-198.1061 357,-216.991 357,-216.991"/>
<polygon fill="#000000" stroke="#000000" points="353.5001,-216.9909 357,-226.991 360.5001,-216.991 353.5001,-216.9909"/>
</g>
<!-- UserModule -->
<g id="node4" class="node">
<title>UserModule</title>
<polygon fill="#8dd3c7" stroke="#000000" points="274.9762,-198 271.9762,-202 250.9762,-202 247.9762,-198 189.0238,-198 189.0238,-162 274.9762,-162 274.9762,-198"/>
<text text-anchor="middle" x="232" y="-175.8" font-family="Times,serif" font-size="14.00" fill="#000000">UserModule</text>
</g>
<!-- UserModule&#45;&gt;AppModule -->
<g id="edge3" class="edge">
<title>UserModule&#45;&gt;AppModule</title>
<path fill="none" stroke="#000000" d="M232,-198.1061C232,-217.3391 232,-245 232,-245 232,-245 305.0291,-245 305.0291,-245"/>
<polygon fill="#000000" stroke="#000000" points="305.0291,-248.5001 315.0291,-245 305.029,-241.5001 305.0291,-248.5001"/>
</g>
<!-- DialogComponent -->
<g id="node6" class="node">
<title>DialogComponent</title>
<polygon fill="#ffffb3" stroke="#000000" points="553.9356,-122 434.0644,-122 434.0644,-86 553.9356,-86 553.9356,-122"/>
<text text-anchor="middle" x="494" y="-99.8" font-family="Times,serif" font-size="14.00" fill="#000000">DialogComponent</text>
</g>
<!-- DialogComponent&#45;&gt;UserModule -->
<g id="edge5" class="edge">
<title>DialogComponent&#45;&gt;UserModule</title>
<path fill="none" stroke="#000000" d="M439.7816,-122.0439C439.7816,-134.5633 439.7816,-149 439.7816,-149 439.7816,-149 253.4941,-149 253.4941,-149 253.4941,-149 253.4941,-151.9672 253.4941,-151.9672"/>
<polygon fill="#000000" stroke="#000000" points="249.9941,-151.9671 253.4941,-161.9672 256.9941,-151.9672 249.9941,-151.9671"/>
</g>
<!-- ListComponent -->
<g id="node7" class="node">
<title>ListComponent</title>
<polygon fill="#ffffb3" stroke="#000000" points="416.6109,-122 313.3891,-122 313.3891,-86 416.6109,-86 416.6109,-122"/>
<text text-anchor="middle" x="365" y="-99.8" font-family="Times,serif" font-size="14.00" fill="#000000">ListComponent</text>
</g>
<!-- ListComponent&#45;&gt;UserModule -->
<g id="edge6" class="edge">
<title>ListComponent&#45;&gt;UserModule</title>
<path fill="none" stroke="#000000" d="M365,-122.2434C365,-129.4297 365,-136 365,-136 365,-136 232,-136 232,-136 232,-136 232,-151.8495 232,-151.8495"/>
<polygon fill="#000000" stroke="#000000" points="228.5001,-151.8494 232,-161.8495 235.5001,-151.8495 228.5001,-151.8494"/>
</g>
<!-- ManagerComponent -->
<g id="node8" class="node">
<title>ManagerComponent</title>
<polygon fill="#ffffb3" stroke="#000000" points="295.5814,-122 164.4186,-122 164.4186,-86 295.5814,-86 295.5814,-122"/>
<text text-anchor="middle" x="230" y="-99.8" font-family="Times,serif" font-size="14.00" fill="#000000">ManagerComponent</text>
</g>
<!-- ManagerComponent&#45;&gt;UserModule -->
<g id="edge7" class="edge">
<title>ManagerComponent&#45;&gt;UserModule</title>
<path fill="none" stroke="#000000" d="M210.506,-122.0109C210.506,-122.0109 210.506,-151.855 210.506,-151.855"/>
<polygon fill="#000000" stroke="#000000" points="207.006,-151.8549 210.506,-161.855 214.006,-151.855 207.006,-151.8549"/>
</g>
<!-- UserService -->
<g id="node9" class="node">
<title>UserService</title>
<ellipse fill="#fdb462" stroke="#000000" cx="82" cy="-104" rx="58.4415" ry="18"/>
<text text-anchor="middle" x="82" y="-99.8" font-family="Times,serif" font-size="14.00" fill="#000000">UserService</text>
</g>
<!-- UserService&#45;&gt;UserModule -->
<g id="edge8" class="edge">
<title>UserService&#45;&gt;UserModule</title>
<path fill="none" stroke="#000000" d="M82,-122.0109C82,-144.4852 82,-180 82,-180 82,-180 179.016,-180 179.016,-180"/>
<polygon fill="#000000" stroke="#000000" points="179.0161,-183.5001 189.016,-180 179.016,-176.5001 179.0161,-183.5001"/>
</g>
</g>
</svg>
